# xmcd
#
# Track frame offsets:
# 150
# 12336
# 34752
# 50254
# 58623
# 73338
# 94448
# 112371
# 122004
# 136590
# 150340
#
# Disc length: 2194 seconds
#
#
# Revision: 2
# Processed by: cddbd v1.5.1PL0 Copyright (c) Steve Scherf et al.
# Submitted via: FreeRIP 2.942 
#
DISCID=9608900b
DTITLE=Tracy Chapman - Tracy Chapman
DYEAR=1988
DGENRE=Blues
TTITLE0=Tracy Chapman - For You
TTITLE1=Tracy Chapman - Talkin' Bout A Revolution
TTITLE2=Tracy Chapman - Fast Car
TTITLE3=Tracy Chapman - Across The Lines
TTITLE4=Tracy Chapman - Behind The Wall
TTITLE5=Tracy Chapman - Baby Can I Hold You
TTITLE6=Tracy Chapman - Mountains O' Things
TTITLE7=Tracy Chapman - She's Got Her Ticket
TTITLE8=Tracy Chapman - Why
TTITLE9=Tracy Chapman - For My Lover
TTITLE10=Tracy Chapman - If Not Now
EXTD=
EXTT0=
EXTT1=
EXTT2=
EXTT3=
EXTT4=
EXTT5=
EXTT6=
EXTT7=
EXTT8=
EXTT9=
EXTT10=
PLAYORDER=
